<?xml version="1.0" standalone="no"?><!DOCTYPE svg PUBLIC "-//W3C//DTD SVG 1.1//EN" "http://www.w3.org/Graphics/SVG/1.1/DTD/svg11.dtd"><svg t="1676613064548" class="icon" viewBox="0 0 1228 1024" version="1.1" xmlns="http://www.w3.org/2000/svg" p-id="2782" xmlns:xlink="http://www.w3.org/1999/xlink" width="57.5625" height="48"><path d="M0 0m47.919115 0l1054.220532 0q47.919115 0 47.919115 47.919115l0 0q0 47.919115-47.919115 47.919115l-1054.220532 0q-47.919115 0-47.919115-47.919115l0 0q0-47.919115 47.919115-47.919115Z" fill="#4D4D4D" p-id="2783"></path><path d="M0 862.544072m47.919115 0l1054.220532 0q47.919115 0 47.919115 47.919115l0 0q0 47.919115-47.919115 47.919115l-1054.220532 0q-47.919115 0-47.919115-47.919115l0 0q0-47.919115 47.919115-47.919115Z" fill="#4D4D4D" p-id="2784"></path><path d="M383.352921 575.029381m47.919115 0l670.867611 0q47.919115 0 47.919115 47.919115l0 0q0 47.919115-47.919115 47.919115l-670.867611 0q-47.919115 0-47.919115-47.919115l0 0q0-47.919115 47.919115-47.919115Z" fill="#4D4D4D" p-id="2785"></path><path d="M383.352921 287.514691m47.919115 0l670.867611 0q47.919115 0 47.919115 47.919115l0 0q0 47.919115-47.919115 47.919115l-670.867611 0q-47.919115 0-47.919115-47.919115l0 0q0-47.919115 47.919115-47.919115Z" fill="#4D4D4D" p-id="2786"></path><path d="M6.9825 502.46615L262.870574 683.737317a16.566323 16.566323 0 0 0 26.150146-13.691176V307.640719a16.566323 16.566323 0 0 0-26.150146-13.691176L6.9825 475.357622a16.703234 16.703234 0 0 0 0 27.108528z" fill="#4D4D4D" p-id="2787"></path></svg>