<svg 
 xmlns="http://www.w3.org/2000/svg"
 xmlns:xlink="http://www.w3.org/1999/xlink"
 width="24px" height="25px">
<path fill-rule="evenodd"  fill-opacity="0" fill="rgb(162, 167, 197)"
 d="M-0.000,0.812 L24.000,0.812 L24.000,24.813 L-0.000,24.813 L-0.000,0.812 Z"/>
<path fill-rule="evenodd"  fill="rgb(144, 147, 153)"
 d="M15.849,3.810 C17.233,3.810 18.470,4.663 18.947,5.946 C19.423,7.228 19.039,8.668 17.983,9.551 L19.448,12.541 C20.935,12.282 22.388,13.144 22.852,14.562 C23.317,15.980 22.652,17.519 21.293,18.169 C19.934,18.818 18.298,18.379 17.459,17.140 C16.621,15.901 16.836,14.241 17.964,13.250 L16.499,10.262 C16.129,10.334 15.750,10.345 15.377,10.292 L11.934,17.070 C13.317,18.228 13.494,20.270 12.331,21.643 C11.168,23.016 9.101,23.205 7.702,22.068 C6.302,20.929 6.095,18.890 7.237,17.501 L4.571,14.001 C3.275,14.402 1.878,13.808 1.280,12.604 C0.683,11.401 1.066,9.947 2.180,9.182 C3.296,8.417 4.809,8.570 5.744,9.542 C6.679,10.514 6.755,12.013 5.924,13.073 L8.561,16.533 C9.162,16.294 9.822,16.234 10.458,16.361 L13.857,9.664 C12.727,8.819 12.270,7.356 12.721,6.030 C13.173,4.704 14.432,3.810 15.849,3.810 L15.849,3.810 ZM9.800,18.073 C9.264,18.073 8.769,18.355 8.501,18.813 C8.233,19.271 8.233,19.835 8.501,20.294 C8.769,20.752 9.264,21.034 9.800,21.034 C10.628,21.034 11.300,20.371 11.300,19.553 C11.300,18.736 10.628,18.073 9.800,18.073 L9.800,18.073 ZM19.974,14.124 C19.215,14.124 18.599,14.732 18.599,15.482 C18.599,16.231 19.215,16.839 19.974,16.839 C20.734,16.839 21.349,16.231 21.349,15.482 C21.349,14.732 20.734,14.124 19.974,14.124 L19.974,14.124 ZM3.750,10.176 C3.304,10.176 2.891,10.412 2.667,10.793 C2.444,11.175 2.444,11.645 2.667,12.027 C2.891,12.409 3.304,12.644 3.750,12.644 C4.441,12.644 5.000,12.092 5.000,11.410 C5.000,10.729 4.441,10.176 3.750,10.176 L3.750,10.176 ZM15.849,5.587 C15.021,5.587 14.350,6.250 14.350,7.067 C14.350,7.885 15.021,8.548 15.849,8.548 C16.677,8.548 17.349,7.885 17.349,7.067 C17.349,6.250 16.677,5.587 15.849,5.587 L15.849,5.587 Z"/>
</svg>
